# xmcd
#
# Track frame offsets: 
#        150
#        18322
#        28938
#        44880
#        61320
#        79761
#        93585
#        115732
#        129929
#        143387
#        157369
#        171414
#        183933
#        197984
#        216032
#        227289
#        244034
#
# Disc length: 3441 seconds
#
# Revision: 1
# Processed by: cddbd v1.5.2PL0 Copyright (c) Steve Scherf et al.
# Submitted via: ExactAudioCopy v0.99pb5
#
DISCID=ea0d6f11
DTITLE=Penny Davis and Roger Ilot - Just a Bit of Quartz
DYEAR=2003
DGENRE=New Age
TTITLE0=The Light Of The Star
TTITLE1=60 Miles from Cunningham's Gap
TTITLE2=Don't let the Murray Run Dry
TTITLE3=The Western Mail
TTITLE4=Stay On Shore
TTITLE5=A Nautical Yarn
TTITLE6=The Net
TTITLE7=Plastic Container Of Plonk
TTITLE8=The Injune Railway
TTITLE9=Just a Bit of Quartz
TTITLE10=The Listening Land
TTITLE11=My Old Dog and I
TTITLE12=Frost On the Wattle
TTITLE13=The Long Haul
TTITLE14=Sow The Seeds Of Love
TTITLE15=Love Is A Lifeline
TTITLE16=Stardust
EXTD=YEAR: 2003
EXTT0=
EXTT1=
EXTT2=
EXTT3=
EXTT4=
EXTT5=
EXTT6=
EXTT7=
EXTT8=
EXTT9=
EXTT10=
EXTT11=
EXTT12=
EXTT13=
EXTT14=
EXTT15=
EXTT16=
PLAYORDER=
